<?xml version="1.0" encoding="UTF-8"?>
<svg id="Layer_1" data-name="Layer 1" xmlns="http://www.w3.org/2000/svg" viewBox="0 0 1500 1500">
  <defs>
    <style>
      .cls-1, .cls-2 {
        fill: #ec2e27;
      }

      .cls-2 {
        stroke: #ec2e27;
        stroke-miterlimit: 10;
        stroke-width: 4px;
      }
    </style>
  </defs>
  <g>
    <path class="cls-1" d="m800.41,603.21c-18.69.79-34.27,17.68-38.76,42.01-.24,1.32.47,2.64,1.58,2.94.06.02.13.02.19.02h9.55c.36,0,.67-.26.73-.61,4.24-23.05,14.18-37.89,28.76-42.92.34-.12.55-.46.49-.82-.05-.36-.36-.62-.72-.63,0,0-1.07-.03-1.84,0Z"/>
    <path class="cls-1" d="m650,787.24c-12.55,2.2-20.98,4.35-47.63,18.08-13.97,7.2-30.65,12-45.98,13.36l99.59,120.7c3.88,4.7,11.08,4.7,14.96,0l20.31-24.62c45.62-54.09,42.34-90.19,37.64-106.49-7.69-26.69-54.86-25.25-78.89-21.03Z"/>
    <path class="cls-1" d="m735.23,662.06v-10.82c0-.96.78-1.74,1.74-1.74h13.12c.52-29.41,23.31-53.38,52.24-55.76v-2.41c0-3.8,3.65-6.74,7.63-5.52,2.43.74,3.97,3.14,3.97,5.68v2.47c11.48,1.38,21.9,6.17,30.24,13.33-8.15-31.07-24.4-60.39-48.59-84.58h0c-72.98-72.98-191.29-72.98-264.27,0h0c-50.13,50.13-66.17,122.26-46.68,186.47,2.13,6.3,7.91,19.85,21.84,34.91,13.73,14.85,34.43,23.05,57.25,18.62,16.79-3.26,32.61-12.99,45.74-38.27,16.87-32.47,11.25-58.17,3.27-74.3-13.65.62-24.95,3.31-29.23,9.42-6.1,8.71,2.9,38.34,6.51,57.97.37,2.01-.95,3.94-2.95,4.35-24.46,5.01-43.46-18.95-48.39-46.53-2.62-14.65-.69-22.14,4.91-33.36,9.74-19.51,41.81-35.42,81.32-38.19,38.91-2.73,67.29,9.56,70.93,17.74,13.13,29.4,26.11,61.69,49.37,61.57,15.78-.08,28.65-4.49,36.33-7.76,19.88-8.47,30-5.17,44.72,9.33,1.03,1.01,1.02,2.68-.05,3.65-7.47,6.77-36.01,30.79-72.07,37.79-3.65.71-7.23,1.04-10.73,1.04-21.55,0-40.32-16.4-55.14-33.08,0,0-1.95,17.87-16.96,39.36,39.61,3.79,89.53,7.8,102.98,49.85,2.83,8.84,4.15,17.33,4.5,25.4l28.82-34.92c26.98-32.7,41.07-72.07,42.59-111.7h-114.95Zm-35.43-61.29c-21.42-.84-38.1-18.89-37.25-40.31.84-21.42,18.89-38.1,40.31-37.25,21.42.84,38.1,18.89,37.25,40.31-.85,21.42-18.89,38.1-40.31,37.25Z"/>
  </g>
  <g>
    <path class="cls-2" d="m416.43,963.97c-2.24.08-4.02.35-5.33.81-1.31.46-2.36,1.2-3.13,2.2-.78,1.01-1.47,2.43-2.09,4.29-.78,2.32-1.97,5.1-3.6,8.35-1.62,3.25-3.25,6.49-4.87,9.74s-3.09,6.22-4.41,8.93c-1.31,2.71-2.13,4.75-2.43,6.14-.46,2.63-1.04,4.37-1.74,5.22-.7.85-1.59,1.36-2.67,1.51-1.55.16-3.36.35-5.45.58-2.09.23-4.14.43-6.15.58-2.01.16-3.79.27-5.33.35-1.55.08-2.47.12-2.78.12-.78,0-1.36-.42-1.74-1.28-.39-.85-.58-1.66-.58-2.43,0-2.16.19-3.6.58-4.29.38-.7,1.12-1.2,2.2-1.51,2.32-.62,4.68-1.74,7.07-3.36,2.39-1.62,4.37-4.52,5.91-8.7.31-1.08,1.66-3.83,4.06-8.23,2.39-4.41,5.29-9.74,8.7-16,3.4-6.26,7.07-13.06,11.02-20.41,3.94-7.34,7.57-14.53,10.9-21.57,3.32-7.03,6.06-13.57,8.23-19.6,2.16-6.03,3.25-10.82,3.25-14.38,0-.46-.16-1.12-.46-1.97-.31-.85-.66-1.81-1.04-2.9-.39-1.08-.73-2.05-1.04-2.9-.31-.85-.46-1.51-.46-1.97,0-.77.5-1.62,1.51-2.55,1-.93,2.2-1.82,3.6-2.67,1.39-.85,2.78-1.54,4.17-2.09,1.39-.54,2.47-.81,3.25-.81.93,0,2.36.97,4.29,2.9,1.93,1.94,3.52,4.21,4.75,6.84,5.25,11.13,10.82,23.04,16.7,35.71,5.87,12.68,13.22,26.75,22.03,42.2,5.56,9.74,10.24,17.47,14.03,23.19,3.79,5.72,6.84,10.09,9.16,13.1,2.32,3.02,3.98,5.07,4.99,6.14,1,1.08,1.51,1.86,1.51,2.32,0,1.7-.58,2.82-1.74,3.36-1.16.54-2.36.81-3.59.81-.93,0-2.24-.08-3.94-.23-1.7-.15-3.48-.38-5.33-.7-1.86-.31-3.59-.62-5.22-.93-1.62-.31-2.82-.62-3.6-.93-1.39-.31-2.55-1.28-3.48-2.9-.93-1.62-1.7-3.44-2.32-5.45-.46-1.39-1.43-3.75-2.9-7.07-1.47-3.32-3.05-6.69-4.75-10.09-1.7-3.4-3.33-6.45-4.87-9.16-1.55-2.7-2.71-4.21-3.48-4.52-1.55-.77-4.17-1.43-7.88-1.97-3.71-.54-7.73-.96-12.06-1.28-4.33-.31-8.58-.5-12.75-.58-4.17-.08-7.42-.12-9.74-.12-3.71,0-6.69.04-8.93.12Zm27.02-46.72c-1.86-3.55-3.05-6.3-3.6-8.23-.54-1.93-1.36-2.9-2.43-2.9-.46,0-.89.35-1.28,1.04-.39.7-.78,1.59-1.16,2.67-.39,1.08-.74,2.17-1.04,3.25-.31,1.08-.7,2.09-1.16,3.02l-12.06,24.58c-1.7,3.56-2.94,6.07-3.71,7.54-.78,1.47-1.16,2.59-1.16,3.36,0,1.08,1.31,1.62,3.94,1.62h41.97l-18.32-35.94Z"/>
    <path class="cls-2" d="m563.45,981.71c-4.25,12.99-7,22.49-8.23,28.52-.31,1.24-.62,2.24-.93,3.02-.31.77-.85,1.35-1.62,1.74-.78.38-1.82.66-3.13.81-1.32.15-3.05.23-5.22.23-1.08,0-2.24-.31-3.48-.93-1.24-.62-2.4-1.36-3.48-2.2-1.08-.85-1.97-1.74-2.67-2.67s-1.04-1.7-1.04-2.32c0-.93.31-2.01.93-3.25.62-1.24,2.01-3.09,4.17-5.57,2.47-2.78,5.1-6.99,7.88-12.64,2.78-5.64,5.33-11.63,7.65-17.97,2.32-6.34,4.21-12.56,5.68-18.67,1.47-6.11,2.2-11.09,2.2-14.96,0-7.88-1.28-14.76-3.83-20.64-2.55-5.87-5.41-10.94-8.58-15.19-3.17-4.25-6.03-7.88-8.58-10.9-2.55-3.01-3.83-5.53-3.83-7.54,0-.77.5-1.39,1.51-1.86,1-.46,2.2-.85,3.59-1.16,1.39-.31,2.82-.54,4.29-.7,1.47-.15,2.74-.23,3.83-.23s2.32.46,3.71,1.39c1.39.93,3.28,2.82,5.68,5.68,2.4,2.86,5.57,7,9.51,12.41,3.94,5.41,8.93,12.52,14.96,21.33,2.63,3.71,5.83,7.92,9.62,12.64,3.79,4.72,7.88,9.51,12.29,14.38s9,9.59,13.8,14.14c4.79,4.56,9.54,8.66,14.26,12.29,4.71,3.63,9.2,6.53,13.45,8.7,4.25,2.17,8.08,3.25,11.48,3.25,6.34,0,13.8-2.01,22.38-6.03,8.58-4.02,17.04-9.54,25.39-16.58,8.35-7.03,15.96-15.42,22.84-25.16,6.88-9.74,11.71-20.33,14.49-31.77.93-3.86,1.82-6.57,2.67-8.12.85-1.54,1.74-2.32,2.67-2.32.62,0,1.51.12,2.67.35,1.16.23,2.32.62,3.48,1.16,1.16.54,2.16,1.16,3.02,1.86.85.7,1.28,1.51,1.28,2.43,0,1.24-.31,3.52-.93,6.84-.62,3.33-1.36,7.54-2.2,12.64-.85,5.1-1.59,11.13-2.2,18.09-.62,6.96-.93,14.69-.93,23.19,0,5.56.66,10.63,1.97,15.19,1.31,4.56,2.78,8.62,4.41,12.17,1.62,3.56,3.09,6.65,4.41,9.28,1.31,2.63,1.97,4.79,1.97,6.49,0,.62-.54,1.36-1.62,2.2-1.08.85-2.36,1.66-3.83,2.44-1.47.78-2.98,1.43-4.52,1.97-1.55.54-2.78.81-3.71.81-1.86,0-3.29-1.24-4.29-3.71-1.01-2.47-1.74-5.87-2.2-10.2-.46-3.71-1.04-7.96-1.74-12.75-.7-4.79-1.39-9.51-2.09-14.15-.7-4.64-1.32-8.85-1.86-12.64-.54-3.79-.97-6.53-1.28-8.23l-14.38,12.99c-10.82,9.74-22.19,17.55-34.09,23.42-11.91,5.88-23.27,8.81-34.09,8.81-4.17,0-8.27-.46-12.29-1.39-4.02-.93-8.23-2.62-12.64-5.1-4.41-2.47-9.16-5.83-14.26-10.09-5.1-4.25-10.75-9.7-16.93-16.35l-23.42-24.81c-5.1,17.62-9.78,32.93-14.03,45.91Z"/>
    <path class="cls-2" d="m817.6,921.88c-.23-4.64-.35-8.96-.35-12.99,0-2.16-.08-3.98-.23-5.45-.16-1.47-.7-2.74-1.62-3.83-1.55-1.7-2.59-3.21-3.13-4.52-.54-1.31-.81-2.59-.81-3.83,0-.93.7-2.24,2.09-3.94,1.39-1.7,3.01-3.32,4.87-4.87,1.86-1.54,3.75-2.9,5.68-4.06,1.93-1.16,3.44-1.74,4.52-1.74,1.7,0,3.63.66,5.8,1.97,2.16,1.32,3.25,2.44,3.25,3.36,0,1.86-.35,3.75-1.04,5.68-.7,1.93-1.12,4.21-1.28,6.84-.62,6.8-1.12,18.2-1.51,34.21-.39,16-.58,37.91-.58,65.74,0,9.28-.58,15.42-1.74,18.44-1.16,3.01-3.05,4.52-5.68,4.52-1.08,0-2.05-.2-2.9-.58-.85-.39-1.59-1.36-2.2-2.9-.62-1.54-1.12-3.9-1.51-7.07-.39-3.17-.66-7.57-.81-13.22-.16-5.64-.27-12.75-.35-21.33-.08-8.58-.12-18.97-.12-31.19,0-8.19-.12-14.61-.35-19.25Z"/>
    <path class="cls-2" d="m972.61,965.01c1.08-.62,3.32-.93,6.72-.93.93,0,1.7.16,2.32.46.62.31,1.12,1.12,1.51,2.44.38,1.31.62,3.33.7,6.03.07,2.71.12,6.53.12,11.48,0,10.36.35,18.75,1.04,25.16.7,6.41,1.04,11.86,1.04,16.35,0,2.16-.43,3.71-1.28,4.64-.85.93-2.67,1.39-5.45,1.39-.93,0-1.7-.23-2.32-.7-.62-.46-1.24-1.35-1.86-2.67-.62-1.31-1.2-3.21-1.74-5.68-.54-2.47-1.12-5.72-1.74-9.74-.62-4.02-2.94-6.03-6.96-6.03-.62,0-1.74.16-3.36.46-1.62.31-3.52.62-5.68.93-2.17.31-4.49.62-6.96.93-2.47.31-4.79.46-6.96.46-10.67,0-19.44-2.01-26.32-6.03-6.88-4.02-12.33-8.93-16.35-14.73-4.02-5.8-6.84-11.86-8.46-18.2-1.62-6.34-2.44-11.9-2.44-16.7,0-9.58,1.47-19.02,4.41-28.29,2.94-9.28,7.54-17.54,13.8-24.81,6.26-7.26,14.18-13.18,23.77-17.74,9.58-4.56,21.02-6.84,34.32-6.84,8.81,0,15.54.97,20.17,2.9,4.64,1.94,6.96,4.99,6.96,9.16,0,1.08-.46,2.2-1.39,3.36-.93,1.16-2.01,2.17-3.25,3.01-1.24.85-2.47,1.55-3.71,2.09-1.24.54-2.24.81-3.02.81-1.08,0-2.2-.46-3.36-1.39-1.16-.93-3.44-2.94-6.84-6.03-1.55-1.39-3.01-2.28-4.41-2.67-1.39-.38-3.09-.58-5.1-.58-7.58,0-14.72,2.28-21.45,6.84-6.72,4.56-12.64,10.32-17.74,17.28s-9.12,14.57-12.06,22.84c-2.94,8.27-4.41,16.12-4.41,23.54,0,8.35.89,15.15,2.67,20.41,1.78,5.26,4.25,9.31,7.42,12.17,3.17,2.86,6.84,4.83,11.02,5.91,4.17,1.08,8.66,1.62,13.45,1.62,4.17,0,8-.5,11.48-1.51,3.48-1,6.49-2.28,9.04-3.83,2.55-1.54,4.56-3.25,6.03-5.1,1.47-1.86,2.36-3.71,2.67-5.57l1.86-13.91c.31-1.39,1-2.39,2.09-3.02Z"/>
    <path class="cls-2" d="m1033.83,926.29c2.16-7.88,5.64-15.07,10.44-21.57,4.79-6.49,10.93-11.79,18.44-15.88,7.5-4.09,16.58-6.14,27.25-6.14,6.18,0,12.06,1.2,17.62,3.59,5.57,2.4,10.44,6.11,14.61,11.13,4.17,5.03,7.5,11.44,9.97,19.25,2.47,7.81,3.71,17.04,3.71,27.71s-1.59,19.25-4.75,27.13c-3.17,7.88-7.38,14.49-12.64,19.83-5.26,5.33-11.25,9.39-17.97,12.17s-13.72,4.17-20.99,4.17c-5.72,0-11.52-1.23-17.39-3.71-5.88-2.47-11.13-6.15-15.77-11.02-4.64-4.87-8.43-10.94-11.36-18.2-2.94-7.27-4.41-15.69-4.41-25.28,0-7.57,1.08-15.3,3.25-23.19Zm15.07,31.54c1.08,5.26,3.05,10.47,5.91,15.65,2.86,5.18,6.76,9.7,11.71,13.56,4.95,3.87,11.28,5.8,19.01,5.8,3.25,0,6.88-.62,10.9-1.86,4.02-1.24,7.85-3.55,11.48-6.96,3.63-3.4,6.65-8.08,9.04-14.03,2.39-5.95,3.59-13.57,3.59-22.84s-1.01-17.62-3.01-24.12c-2.01-6.49-4.64-11.71-7.88-15.65-3.25-3.94-6.96-6.8-11.13-8.58-4.17-1.78-8.5-2.67-12.99-2.67-6.03,0-11.44,1.36-16.23,4.06-4.79,2.71-8.81,6.3-12.06,10.78-3.25,4.49-5.72,9.74-7.42,15.77-1.7,6.03-2.55,12.37-2.55,19.02,0,2.78.54,6.8,1.62,12.06Z"/>
  </g>
</svg>